<svg width="131" height="144" viewBox="0 0 131 144" fill="none" xmlns="http://www.w3.org/2000/svg">
<g id="Split">
<path id="shape" d="M54.9042 121.485C57.3512 117.219 61.6348 115.088 65.917 115.092C70.1992 115.088 74.4828 117.219 76.9298 121.485L89.7217 143.782L110.319 131.814L130.917 119.847L107.661 79.31C95.9922 58.9696 89.8488 41.8431 89.8488 18.3561V5.78207H41.9852V18.3561C41.9852 41.8431 35.8418 58.9696 24.1726 79.31L0.916992 119.847L21.5146 131.814L42.1122 143.782L54.9042 121.485Z" fill="#C4C4C4"/>
<path id="midi-out" d="M23.5768 127.23L18.5768 135.89L19.4428 136.39L24.4428 127.73L23.5768 127.23Z" fill="black"/>
<path id="midi-out_2" d="M107.387 127.73L112.387 136.39L113.253 135.89L108.253 127.23L107.387 127.73Z" fill="black"/>
<path id="midi-in" d="M66.417 10.782L66.417 0.782043L65.417 0.782043L65.417 10.782L66.417 10.782Z" fill="black"/>
</g>
</svg>
