<svg width="130" height="143" viewBox="0 0 130 143" fill="none" xmlns="http://www.w3.org/2000/svg">
<g id="Split">
<path id="shape" d="M41.1952 143L20.5976 131.032L0 119.065C0 119.065 11.5864 98.8682 23.2556 78.5279C34.9248 58.1875 41.0682 41.061 41.0682 17.574V5H88.9318V17.574C88.9318 41.061 95.0752 58.1875 106.744 78.5279C118.414 98.8683 130 119.065 130 119.065L109.402 131.032L88.8047 143L76.0128 120.703C73.5658 116.437 69.2822 114.306 65 114.31C60.7178 114.306 56.4342 116.437 53.9872 120.703L41.1952 143Z" fill="#C4C4C4"/>
<path id="props" d="M94 63L104 63" stroke="#00D300"/>
<path id="props_2" d="M26 63L36 63" stroke="#00D300"/>
<path id="out" d="M106.82 126.48L111.82 135.14" stroke="#0000FF"/>
<path id="out_2" d="M23.01 126.48L18.01 135.14" stroke="#0000FF"/>
<path id="in" d="M65 10V0" stroke="#0000FF"/>
</g>
</svg>
