<?xml version="1.0" encoding="UTF-8" standalone="no"?><!DOCTYPE svg PUBLIC "-//W3C//DTD SVG 1.1//EN" "http://www.w3.org/Graphics/SVG/1.1/DTD/svg11.dtd"><svg width="100%" height="100%" viewBox="0 0 100 100" version="1.1" xmlns="http://www.w3.org/2000/svg" xmlns:xlink="http://www.w3.org/1999/xlink" xml:space="preserve" xmlns:serif="http://www.serif.com/" style="fill-rule:evenodd;clip-rule:evenodd;stroke-linejoin:round;stroke-miterlimit:2;"><path d="M37.595,8.757c1.721,-5.226 6.602,-8.757 12.103,-8.757c5.502,0 10.383,3.531 12.104,8.757c0.333,1.012 1.112,1.816 2.114,2.18c1.002,0.365 2.115,0.25 3.022,-0.311c4.677,-2.897 10.685,-2.465 14.9,1.072c4.214,3.536 5.683,9.378 3.643,14.487c-0.396,0.99 -0.315,2.107 0.218,3.03c0.533,0.923 1.46,1.551 2.515,1.704c5.445,0.787 9.769,4.98 10.725,10.399c0.955,5.418 -1.675,10.837 -6.522,13.439c-0.939,0.505 -1.595,1.412 -1.78,2.461c-0.186,1.05 0.121,2.127 0.831,2.922c3.665,4.103 4.283,10.095 1.532,14.86c-2.751,4.765 -8.249,7.226 -13.635,6.103c-1.044,-0.217 -2.13,0.056 -2.946,0.741c-0.817,0.685 -1.274,1.707 -1.241,2.773c0.17,5.499 -3.209,10.486 -8.379,12.368c-5.169,1.881 -10.963,0.233 -14.368,-4.089c-0.659,-0.838 -1.667,-1.326 -2.733,-1.326c-1.066,-0 -2.073,0.488 -2.732,1.326c-3.405,4.322 -9.199,5.97 -14.369,4.089c-5.169,-1.882 -8.548,-6.869 -8.378,-12.368c0.033,-1.066 -0.424,-2.088 -1.241,-2.773c-0.817,-0.685 -1.902,-0.958 -2.946,-0.741c-5.386,1.123 -10.884,-1.338 -13.635,-6.103c-2.751,-4.765 -2.133,-10.757 1.532,-14.86c0.71,-0.795 1.017,-1.872 0.831,-2.922c-0.185,-1.049 -0.841,-1.956 -1.78,-2.461c-4.847,-2.602 -7.477,-8.021 -6.522,-13.439c0.955,-5.419 5.28,-9.612 10.725,-10.399c1.055,-0.153 1.982,-0.781 2.515,-1.704c0.533,-0.923 0.613,-2.04 0.218,-3.03c-2.04,-5.109 -0.571,-10.951 3.643,-14.487c4.215,-3.537 10.223,-3.969 14.9,-1.072c0.907,0.561 2.02,0.676 3.022,0.311c1.002,-0.364 1.781,-1.168 2.114,-2.18Z"/></svg>