<?xml version="1.0" encoding="UTF-8" standalone="no"?><!DOCTYPE svg PUBLIC "-//W3C//DTD SVG 1.1//EN" "http://www.w3.org/Graphics/SVG/1.1/DTD/svg11.dtd"><svg width="100%" height="100%" viewBox="0 0 100 100" version="1.1" xmlns="http://www.w3.org/2000/svg" xmlns:xlink="http://www.w3.org/1999/xlink" xml:space="preserve" xmlns:serif="http://www.serif.com/" style="fill-rule:evenodd;clip-rule:evenodd;stroke-linejoin:round;stroke-miterlimit:2;"><path d="M35.128,14.349c1.339,-7.159 7.588,-12.349 14.872,-12.349c7.284,0 13.533,5.19 14.872,12.349c0.213,1.14 0.956,2.111 2.001,2.614c1.045,0.503 2.267,0.479 3.291,-0.065c6.432,-3.418 14.386,-1.767 18.928,3.928c4.541,5.694 4.38,13.816 -0.383,19.327c-0.758,0.877 -1.054,2.063 -0.796,3.194c0.258,1.13 1.039,2.071 2.103,2.532c6.682,2.898 10.351,10.146 8.73,17.247c-1.62,7.101 -8.071,12.039 -15.349,11.751c-1.158,-0.046 -2.27,0.463 -2.993,1.369c-0.723,0.907 -0.971,2.104 -0.669,3.223c1.901,7.032 -1.479,14.419 -8.041,17.579c-6.562,3.161 -14.445,1.197 -18.757,-4.673c-0.687,-0.935 -1.777,-1.487 -2.937,-1.487c-1.16,0 -2.25,0.552 -2.937,1.487c-4.312,5.87 -12.195,7.834 -18.757,4.673c-6.562,-3.16 -9.942,-10.547 -8.041,-17.579c0.302,-1.119 0.054,-2.316 -0.669,-3.223c-0.723,-0.906 -1.835,-1.415 -2.993,-1.369c-7.278,0.288 -13.729,-4.65 -15.349,-11.751c-1.621,-7.101 2.048,-14.349 8.73,-17.247c1.064,-0.461 1.845,-1.402 2.103,-2.532c0.258,-1.131 -0.038,-2.317 -0.796,-3.194c-4.763,-5.511 -4.924,-13.633 -0.383,-19.327c4.542,-5.695 12.496,-7.346 18.928,-3.928c1.024,0.544 2.246,0.568 3.291,0.065c1.045,-0.503 1.788,-1.474 2.001,-2.614Z"/></svg>