<svg width="446" height="469" viewBox="0 0 446 469" fill="none" xmlns="http://www.w3.org/2000/svg">
<g id="module-split">
<path id="background" d="M185.726 391.13C194.008 376.786 208.506 369.619 223 369.63C237.494 369.619 251.992 376.786 260.274 391.13L303.57 466.121L443 385.621L364.289 249.289C324.793 180.88 304 123.28 304 44.2889V2H142V44.2889C142 123.28 121.207 180.88 81.7114 249.289L3 385.621L142.43 466.121L185.726 391.13Z" fill="#C4C4C4"/>
<circle id="input" cx="223" cy="42" r="18" fill="black"/>
<circle id="output" cx="356" cy="382" r="18" fill="black"/>
<circle id="output_2" cx="94" cy="382" r="18" fill="black"/>
<path id="outline" d="M251.584 2H304V44.2889C304 123.28 324.793 180.88 364.289 249.289L443 385.621L407.35 406.203M194.139 2H142V44.2889C142 123.28 121.207 180.88 81.7114 249.289L3 385.621L39.7419 406.834M94.175 438.261L142.43 466.121L185.726 391.13C194.008 376.786 208.506 369.619 223 369.63C237.494 369.619 251.992 376.786 260.274 391.13L303.57 466.121L355.818 435.956" stroke="black" stroke-width="3" stroke-linecap="round"/>
</g>
</svg>
