<svg width="515" height="315" viewBox="0 0 515 315" fill="none" xmlns="http://www.w3.org/2000/svg">
<g id="module-shape-effect">
<path id="background" d="M412.554 65.754C412.554 81.5157 394.702 95.962 365.029 107.191C419.821 118.818 455.868 138.56 455.868 160.957C455.868 173.784 444.045 185.739 423.65 195.799C477.605 207.466 513 227.052 513 249.246C513 285.009 421.094 314 307.723 314C194.352 314 102.446 285.009 102.446 249.246C102.446 236.419 114.269 224.464 134.664 214.404C80.7091 202.737 45.3141 183.151 45.3141 160.957C45.3141 145.195 63.1659 130.749 92.8394 119.52C38.0474 107.893 2 88.1513 2 65.754C2 29.9914 93.9056 1 207.277 1C320.648 1 412.554 29.9914 412.554 65.754Z" fill="#C4C4C4"/>
<path id="outline" d="M170 2.06487C74.4257 7.59559 2 34.0067 2 65.7539C2 88.1512 38.0474 107.893 92.8394 119.52C63.1659 130.749 45.3141 145.195 45.3141 160.957C45.3141 183.151 80.7091 202.737 134.664 214.404C114.269 224.463 102.446 236.419 102.446 249.246C102.446 280.944 174.647 307.322 270 312.909M242 1.92236C338.835 7.12653 412.554 33.7245 412.554 65.7539C412.554 81.5155 394.702 95.9618 365.029 107.191C419.821 118.818 455.868 138.56 455.868 160.957C455.868 173.784 444.045 185.739 423.65 195.799C477.605 207.466 513 227.052 513 249.246C513 281.324 439.055 307.955 342 313.101" stroke="black" stroke-width="3" stroke-linecap="round" stroke-linejoin="round"/>
<circle id="output" cx="305" cy="274" r="18" transform="rotate(-180 305 274)" fill="black"/>
<circle id="input" cx="206" cy="41" r="18" fill="black"/>
</g>
</svg>
