<svg width="511" height="445" viewBox="0 0 511 445" fill="none" xmlns="http://www.w3.org/2000/svg">
<g id="module-shape-split">
<path id="background" d="M223.902 379.876C230.923 367.716 243.213 361.641 255.5 361.65C267.787 361.641 280.077 367.716 287.098 379.876L323.801 443.448L442 375.206L375.274 259.633C341.793 201.642 324.166 152.813 324.166 85.8495V50H186.834V85.8495C186.834 152.813 169.207 201.642 135.726 259.633L69 375.206L187.199 443.448L223.902 379.876Z" fill="#C4C4C4"/>
<path id="outline" d="M219 50H186.834V85.8495C186.834 152.813 169.207 201.642 135.726 259.633L69 375.206L96 390.795M292 50H324.166V85.8495C324.166 152.813 341.793 201.642 375.274 259.633L442 375.206L416.376 390M159.576 427.5L187.199 443.448L223.902 379.876C230.923 367.716 243.213 361.641 255.5 361.65C267.787 361.641 280.077 367.716 287.098 379.876L323.801 443.448L353 426.59" stroke="black" stroke-width="3" stroke-linecap="round" stroke-linejoin="round"/>
<circle id="input" cx="255" cy="90" r="18" fill="black"/>
<circle id="output" cx="155.588" cy="366.589" r="18" transform="rotate(-150 155.588 366.589)" fill="black"/>
<circle id="output_2" cx="358.588" cy="366.589" r="18" transform="rotate(150 358.588 366.589)" fill="black"/>
<path id="props-guide-left" d="M0.69873 393.507L92.4245 234.633C122.909 181.833 136.834 141.619 136.834 85.8495V0" stroke="black"/>
<path id="props-guide-right" d="M374.166 0V85.8495C374.166 141.619 388.091 181.833 418.576 234.633L510.301 393.507" stroke="black"/>
</g>
</svg>
