<svg width="377" height="397" viewBox="0 0 377 397" fill="none" xmlns="http://www.w3.org/2000/svg">
<g id="module-shape-split">
<path id="background" d="M156.902 331.876C163.923 319.716 176.213 313.641 188.5 313.65C200.787 313.641 213.077 319.716 220.098 331.876L256.801 395.448L375 327.206L308.274 211.633C274.793 153.642 257.166 104.813 257.166 37.8495V2H119.834V37.8495C119.834 104.813 102.207 153.642 68.7258 211.633L2 327.206L120.199 395.448L156.902 331.876Z" fill="#C4C4C4"/>
<path id="outline" d="M152 2H119.834V37.8495C119.834 104.813 102.207 153.642 68.7258 211.633L2 327.206L29 342.795M225 2H257.166V37.8495C257.166 104.813 274.793 153.642 308.274 211.633L375 327.206L349.376 342M92.5757 379.5L120.199 395.448L156.902 331.876C163.923 319.716 176.213 313.641 188.5 313.65C200.787 313.641 213.077 319.716 220.098 331.876L256.801 395.448L286 378.59" stroke="black" stroke-width="3" stroke-linecap="round" stroke-linejoin="round"/>
<circle id="input" cx="188" cy="42" r="18" fill="black"/>
<circle id="output" cx="88.5883" cy="318.589" r="18" transform="rotate(-150 88.5883 318.589)" fill="black"/>
<circle id="output_2" cx="291.588" cy="318.589" r="18" transform="rotate(150 291.588 318.589)" fill="black"/>
</g>
</svg>
